<?xml version="1.0" encoding="utf-8"?>
<!-- Generator: Adobe Illustrator 19.2.1, SVG Export Plug-In . SVG Version: 6.00 Build 0)  -->
<svg version="1.1" id="layer" xmlns="http://www.w3.org/2000/svg" xmlns:xlink="http://www.w3.org/1999/xlink" x="0px" y="0px"
	 viewBox="0 0 652 652" style="enable-background:new 0 0 652 652;" xml:space="preserve">
<style type="text/css">
	.st0{fill:#242232;}
</style>
<polygon class="st0" points="36.5,267.6 36.3,454 82.2,454 82.1,370.7 153.5,454 204.4,454 127,362.9 204.5,267.6 159.7,267.6 
	82.1,357.8 82.1,267.6 "/>
<polygon class="st0" points="228.7,454 228.7,267.6 285.6,267.6 370.9,388 413.2,71.7 413.2,454 365.7,454 271.8,317.4 271.8,454 
	"/>
<path class="st0" d="M599.6,304.4v-36.7H476.4c-18.1,0-45.2,21.3-45.2,61.8c0,24.1,25.9,49.2,37.9,49.2h83.7
	c12,0,14.6,12.9,14.6,20.6c0,7.8-6,18.1-13.7,18.1H436.5V454h120.7c13,0,49.2-9.9,49.2-55.6c0-27.6-5.2-56-39.7-56h-86.2
	c0,0-10.3-5.1-10.3-18.1c0-12.9,8.6-19.9,14.7-19.9C490.8,304.4,599.6,304.4,599.6,304.4"/>
<path class="st0" d="M36.9,468.2c0,0,123.1,103.5,288.5,103.5c79,0,206.7-37,280.2-106.5c0,0-127.5,63.5-285.3,63.5
	C207.2,528.7,153.4,512.3,36.9,468.2"/>
</svg>
